<svg width="24px" height="24px" viewBox="0 0 24 25" fill="none" xmlns="http://www.w3.org/2000/svg" role="img" aria-labelledby="Cart-Icon-title"><title id="Cart-Icon-title">Cart</title><path d="M1 5.25C1 4.83579 1.33579 4.5 1.75 4.5H3.07595C3.78892 4.5 4.43061 4.93253 4.69811 5.59341L5.06506 6.5H20.25C20.4968 6.5 20.7279 6.62146 20.8678 6.82479C21.0078 7.02812 21.0387 7.28729 20.9505 7.51785L18.1921 14.7321C17.7851 15.7968 16.7634 16.5 15.6235 16.5H9.3481C8.22772 16.5 7.21935 15.8203 6.79899 14.7818L3.30769 6.1562C3.26947 6.06179 3.1778 6 3.07595 6H1.75C1.33579 6 1 5.66421 1 5.25Z" fill="currentColor"/><path d="M8.5 17.5C9.32843 17.5 10 18.1716 10 19C10 19.8284 9.32843 20.5 8.5 20.5C7.67157 20.5 7 19.8284 7 19C7 18.1716 7.67157 17.5 8.5 17.5Z" fill="currentColor"/><path d="M18 19C18 18.1716 17.3284 17.5 16.5 17.5C15.6716 17.5 15 18.1716 15 19C15 19.8284 15.6716 20.5 16.5 20.5C17.3284 20.5 18 19.8284 18 19Z" fill="currentColor"/></svg>