<svg width="88" height="21" viewBox="0 0 88 21" fill="none" xmlns="http://www.w3.org/2000/svg" role="img"><title id="Corsair-title">Corsair</title><path fill-rule="evenodd" clip-rule="evenodd" d="M10.9459 4.09094C11.8237 5.60921 12.3834 7.33407 12.5565 9.18358C12.796 11.7383 12.2345 14.1833 11.0919 16.3017C11.6171 14.4932 11.8075 12.5127 11.6159 10.4699C11.6009 10.3066 11.5894 10.1444 11.5698 9.9834L6.71025 6.74604C7.25674 7.96596 7.60413 9.29611 7.73628 10.6967C7.95268 13.0072 7.50892 15.2295 6.57983 17.2014C6.99705 15.5389 7.13151 13.7447 6.95839 11.8987C6.95147 11.8271 6.948 11.755 6.94108 11.6835L2.39377 9.27245C2.90851 10.3441 3.23052 11.5167 3.34651 12.7522C3.62927 15.7703 2.56054 18.5691 0.596191 20.7596C19.9967 12.5341 20.7763 17.951 20.7763 17.951C20.7763 17.951 22.2398 16.034 21.7372 13.9594C21.0695 11.2004 10.9459 4.09094 10.9459 4.09094ZM3.28881 6.27531C3.28881 6.27531 4.7286 8.12251 4.49489 9.65117L6.76508 10.215C6.59658 9.42034 6.27919 8.49991 6.00219 7.7653L3.28881 6.27531ZM7.57527 3.47652C7.57527 3.47652 9.06296 5.80269 8.82924 7.32961L11.347 8.28697C11.0931 7.27248 10.8975 6.3007 10.467 5.39701L7.57527 3.47652ZM12.1688 0.240234C12.1688 0.240234 13.8607 3.67726 13.5497 5.11013C13.5497 5.11013 17.9648 6.53838 18.4565 8.89282C18.4565 8.89282 20.8739 5.71144 12.1688 0.240234ZM82.0404 10.4664V7.79568H84.0746C85.1087 7.79568 85.7221 8.26138 85.7221 9.11314V9.13622C85.7221 9.94354 85.0856 10.4664 84.0856 10.4664H82.0404ZM80.6422 14.4778H82.0404V11.7044H83.7901L85.7446 14.4778H87.4037L85.2558 11.4655C86.3586 11.1481 87.1417 10.3633 87.1417 9.05682V9.03431C87.1417 8.34067 86.9045 7.75091 86.4833 7.31868C85.9726 6.81894 85.1878 6.52348 84.1883 6.52348H80.6422V14.4778ZM75.5876 14.4773H76.9859V6.52292H75.5876V14.4773ZM67.0787 11.3183L68.4423 8.13635L69.8175 11.3183H67.0787ZM64.3169 14.4777H65.7497L66.5674 12.5572H70.3288L71.1355 14.4777H72.6122L69.1129 6.46624H67.8174L64.3169 14.4777ZM55.831 13.3184C56.7855 14.1707 57.9333 14.5908 59.1492 14.5908C60.8198 14.5908 61.9895 13.705 61.9895 12.2162V12.1931C61.9895 10.8751 61.1262 10.2732 59.4447 9.86403C57.9102 9.50048 57.5467 9.22695 57.5467 8.6141V8.59159C57.5467 8.06819 58.0239 7.64808 58.8422 7.64808C59.5699 7.64808 60.2854 7.93143 61.0016 8.46637L61.7518 7.40918C60.9445 6.7617 60.0246 6.40969 58.8653 6.40969C57.2858 6.40969 56.149 7.35205 56.149 8.71624V8.73933C56.149 10.2045 57.1041 10.7048 58.7972 11.114C60.2733 11.455 60.5924 11.762 60.5924 12.3293V12.3518C60.5924 12.9433 60.0465 13.3524 59.1832 13.3524C58.2057 13.3524 57.4336 12.9768 56.6718 12.3183L55.831 13.3184ZM48.0152 10.4664V7.79568H50.0494C51.0835 7.79568 51.6969 8.26138 51.6969 9.11314V9.13622C51.6969 9.94354 51.061 10.4664 50.0603 10.4664H48.0152ZM46.6175 14.4778H48.0152V11.7044H49.7655L51.72 14.4778H53.3791L51.2312 11.4655C52.3334 11.1481 53.1171 10.3633 53.1171 9.05682V9.03431C53.1171 8.34067 52.8787 7.75091 52.4586 7.31868C51.9468 6.81894 51.1631 6.52348 50.1631 6.52348H46.6175V14.4778ZM41.9271 10.523C41.9271 12.0678 40.8243 13.3177 39.246 13.3177C37.666 13.3177 36.5413 12.0453 36.5413 10.4999V10.4768C36.5413 8.93199 37.6435 7.67109 39.2229 7.67109C40.8018 7.67109 41.9271 8.95508 41.9271 10.4999V10.523ZM35.075 10.523C35.075 12.7614 36.7796 14.6133 39.2229 14.6133C41.6651 14.6133 43.3934 12.7384 43.3934 10.4999V10.4768C43.3934 8.23836 41.6882 6.38654 39.246 6.38654C36.8027 6.38654 35.075 8.26144 35.075 10.4999V10.523ZM25.3843 10.523V10.4999C25.3843 8.23836 27.0774 6.38654 29.4866 6.38654C30.9524 6.38654 31.8388 6.89782 32.5999 7.62551L31.7026 8.65962C31.0661 8.0687 30.3846 7.6711 29.4751 7.6711C27.9638 7.6711 26.85 8.92103 26.85 10.4768V10.4999C26.85 12.0568 27.9522 13.3177 29.4751 13.3177C30.4527 13.3177 31.0776 12.9317 31.7586 12.2957L32.6571 13.2046C31.8272 14.0685 30.9178 14.6133 29.4301 14.6133C27.1114 14.6133 25.3843 12.807 25.3843 10.523Z" fill="currentColor"/></svg>