<svg width="34" height="34" viewBox="0 0 34 34" fill="none" xmlns="http://www.w3.org/2000/svg" class="text-youtube-black xl:w-34px xl:h-34px"><path d="M26.8187 7.99211C25.0129 7.1635 23.0763 6.55302 21.0516 6.20337C21.0147 6.19662 20.9779 6.21349 20.9589 6.24722C20.7098 6.69018 20.434 7.26806 20.2408 7.72227C18.063 7.39624 15.8964 7.39624 13.7633 7.72227C13.5701 7.25796 13.2842 6.69018 13.0341 6.24722C13.0151 6.21461 12.9782 6.19775 12.9414 6.20337C10.9177 6.5519 8.98119 7.16239 7.1742 7.99211C7.15856 7.99886 7.14515 8.01011 7.13625 8.02472C3.46307 13.5124 2.45684 18.8651 2.95046 24.1515C2.9527 24.1774 2.96721 24.2021 2.98732 24.2179C5.41077 25.9976 7.75831 27.078 10.0622 27.7942C10.0991 27.8055 10.1382 27.792 10.1617 27.7616C10.7066 27.0174 11.1925 26.2326 11.609 25.4073C11.6336 25.359 11.6101 25.3017 11.5599 25.2826C10.7893 24.9902 10.0555 24.6338 9.34972 24.2291C9.29389 24.1965 9.28942 24.1167 9.34078 24.0784C9.48931 23.9671 9.63788 23.8513 9.77971 23.7344C9.80537 23.713 9.84113 23.7085 9.87129 23.722C14.5082 25.8391 19.5283 25.8391 24.1105 23.722C24.1406 23.7074 24.1764 23.7119 24.2032 23.7333C24.345 23.8502 24.4936 23.9671 24.6432 24.0784C24.6946 24.1167 24.6912 24.1965 24.6354 24.2291C23.9296 24.6417 23.1958 24.9902 22.4241 25.2814C22.3739 25.3006 22.3515 25.359 22.3761 25.4073C22.8016 26.2314 23.2874 27.0162 23.8223 27.7605C23.8447 27.792 23.8849 27.8055 23.9218 27.7942C26.2369 27.078 28.5844 25.9976 31.0078 24.2179C31.0291 24.2021 31.0425 24.1785 31.0447 24.1527C31.6355 18.041 30.0552 12.7321 26.8556 8.02583C26.8478 8.01011 26.8344 7.99886 26.8187 7.99211ZM12.3015 20.9327C10.9054 20.9327 9.75513 19.651 9.75513 18.077C9.75513 16.503 10.8831 15.2213 12.3015 15.2213C13.7309 15.2213 14.8701 16.5142 14.8477 18.077C14.8477 19.651 13.7198 20.9327 12.3015 20.9327ZM21.7161 20.9327C20.3201 20.9327 19.1698 19.651 19.1698 18.077C19.1698 16.503 20.2977 15.2213 21.7161 15.2213C23.1456 15.2213 24.2847 16.5142 24.2624 18.077C24.2624 19.651 23.1456 20.9327 21.7161 20.9327Z" fill="currentColor"/></svg>