<svg width="34" height="34" viewBox="0 0 34 34" fill="none" xmlns="http://www.w3.org/2000/svg" class="text-youtube-black xl:w-34px xl:h-34px"><path d="M11.7196 4.33917C10.363 4.40318 9.43652 4.61967 8.62663 4.93792C7.78844 5.26458 7.078 5.70293 6.37113 6.41234C5.66427 7.12176 5.22898 7.83271 4.90461 8.67218C4.5907 9.48385 4.37803 10.411 4.31811 11.7684C4.25818 13.1258 4.24492 13.5621 4.25155 17.0245C4.25818 20.487 4.27348 20.921 4.33927 22.2812C4.40404 23.6375 4.61977 24.5637 4.93802 25.3738C5.26519 26.212 5.70303 26.9222 6.4127 27.6293C7.12237 28.3365 7.83281 28.7707 8.67432 29.0956C9.48523 29.409 10.4127 29.6227 11.7698 29.6821C13.1269 29.7415 13.5637 29.7553 17.0252 29.7487C20.4866 29.742 20.9224 29.7267 22.2823 29.6622C23.6422 29.5977 24.5635 29.3805 25.3739 29.0637C26.2121 28.7358 26.9228 28.2987 27.6294 27.5888C28.3361 26.8789 28.7711 26.1674 29.0952 25.3274C29.4094 24.5165 29.6228 23.5891 29.6817 22.233C29.7411 20.872 29.7552 20.4375 29.7485 16.9756C29.7419 13.5137 29.7263 13.0796 29.6618 11.72C29.5973 10.3603 29.3813 9.43693 29.0633 8.62628C28.7356 7.78808 28.2983 7.07841 27.5889 6.37078C26.8795 5.66315 26.1675 5.22837 25.3278 4.90502C24.5164 4.59111 23.5894 4.37717 22.2323 4.31852C20.8752 4.25987 20.4384 4.24482 16.9757 4.25145C13.513 4.25808 13.0795 4.27287 11.7196 4.33917ZM11.8685 27.3884C10.6253 27.3343 9.95035 27.1278 9.50053 26.9549C8.90484 26.7254 8.48052 26.4479 8.03222 26.004C7.58393 25.56 7.30852 25.1341 7.07596 24.5397C6.90129 24.0899 6.69091 23.4157 6.63277 22.1725C6.56953 20.8289 6.55627 20.4255 6.54887 17.0215C6.54148 13.6175 6.55448 13.2145 6.61339 11.8704C6.66643 10.6283 6.87426 9.95255 7.04689 9.50298C7.27639 8.90653 7.55282 8.48297 7.9978 8.03493C8.44278 7.58689 8.86736 7.31097 9.46228 7.07841C9.91159 6.90297 10.5858 6.69438 11.8285 6.63522C13.1731 6.57147 13.576 6.55872 16.9795 6.55132C20.383 6.54393 20.787 6.55668 22.1321 6.61584C23.3742 6.6699 24.0502 6.87568 24.4993 7.04934C25.0952 7.27884 25.5193 7.5545 25.9673 8.00025C26.4154 8.44599 26.6915 8.86904 26.9241 9.46524C27.0998 9.91328 27.3084 10.5873 27.367 11.8306C27.4311 13.1753 27.4456 13.5784 27.4517 16.9817C27.4578 20.385 27.4458 20.7892 27.3869 22.1328C27.3326 23.3759 27.1266 24.0511 26.9534 24.5015C26.7239 25.0969 26.4473 25.5215 26.002 25.9693C25.5568 26.4171 25.1327 26.693 24.5375 26.9255C24.0887 27.1007 23.4137 27.3098 22.1721 27.369C20.8275 27.4322 20.4246 27.4455 17.0198 27.4529C13.615 27.4603 13.2131 27.4465 11.8685 27.3884ZM22.2627 10.1856C22.2632 10.4883 22.3534 10.7839 22.522 11.0353C22.6905 11.2866 22.9298 11.4823 23.2096 11.5976C23.4894 11.713 23.7971 11.7427 24.0939 11.6831C24.3906 11.6236 24.6629 11.4774 24.8765 11.263C25.0901 11.0486 25.2354 10.7757 25.2938 10.4787C25.3523 10.1818 25.3214 9.87422 25.2051 9.59485C25.0888 9.31548 24.8922 9.07688 24.6402 8.90925C24.3883 8.74161 24.0922 8.65245 23.7896 8.65306C23.3839 8.65387 22.9952 8.81577 22.7088 9.10317C22.4225 9.39057 22.262 9.77992 22.2627 10.1856ZM10.4535 17.0128C10.4606 20.6288 13.3972 23.5534 17.0124 23.5465C20.6276 23.5396 23.5542 20.6033 23.5474 16.9873C23.5405 13.3714 20.6031 10.446 16.9874 10.4531C13.3717 10.4603 10.4466 13.3974 10.4535 17.0128ZM12.75 17.0082C12.7484 16.1676 12.996 15.3454 13.4616 14.6456C13.9273 13.9457 14.59 13.3997 15.3659 13.0764C16.1419 12.7532 16.9963 12.6674 17.8211 12.8297C18.6458 12.9921 19.4039 13.3954 19.9995 13.9886C20.5951 14.5818 21.0013 15.3383 21.167 16.1624C21.3326 16.9865 21.2501 17.8412 20.93 18.6185C20.6098 19.3957 20.0664 20.0606 19.3684 20.529C18.6704 20.9974 17.8492 21.2483 17.0086 21.2499C16.4504 21.2511 15.8975 21.1423 15.3814 20.9298C14.8653 20.7172 14.3961 20.4051 14.0007 20.0112C13.6052 19.6173 13.2912 19.1494 13.0766 18.6341C12.862 18.1189 12.7511 17.5664 12.75 17.0082Z" fill="currentColor"/></svg>