<svg width="34" height="34" viewBox="0 0 34 34" fill="none" xmlns="http://www.w3.org/2000/svg" class="text-youtube-black w-34px h-34px"><path d="M26.0597 8.51258C24.5336 7.51723 23.4318 5.92534 23.0883 4.06947C23.0141 3.6683 22.9734 3.25578 22.9734 2.83333H18.1021L18.0941 22.3552C18.0123 24.5413 16.2132 26.2959 14.0072 26.2959C13.3217 26.2959 12.676 26.1246 12.1078 25.8252C10.8045 25.1392 9.91276 23.773 9.91276 22.201C9.91276 19.943 11.7497 18.106 14.0072 18.106C14.4287 18.106 14.8327 18.1756 15.2154 18.2953V13.3223C14.8195 13.2684 14.4174 13.2348 14.0072 13.2348C9.06406 13.2353 5.04199 17.2573 5.04199 22.201C5.04199 25.2343 6.55772 27.9185 8.86963 29.5417C10.3258 30.564 12.0974 31.1667 14.0077 31.1667C18.9513 31.1667 22.9734 27.1446 22.9734 22.201V12.3019C24.8837 13.6733 27.2244 14.4814 29.7502 14.4814V9.61011C28.3896 9.61011 27.1222 9.20563 26.0597 8.51258Z" fill="currentColor"/></svg>