<svg width="34" height="34" viewBox="0 0 34 34" fill="none" xmlns="http://www.w3.org/2000/svg" class="text-youtube-black xl:w-34px xl:h-34px"><path fill-rule="evenodd" clip-rule="evenodd" d="M27.9414 7.59737C29.1469 7.92662 30.0942 8.89323 30.4169 10.1232H30.4146C31 12.3504 31 17 31 17C31 17 31 21.6496 30.4146 23.8768C30.0919 25.1068 29.1446 26.0734 27.9391 26.4026C25.7563 27 17 27 17 27C17 27 8.24366 27 6.06092 26.4026C4.85545 26.0734 3.90813 25.1068 3.58545 23.8768C3 21.6496 3 17 3 17C3 17 3 12.3504 3.58545 10.1232C3.90813 8.89323 4.85545 7.92662 6.06092 7.59737C8.24366 7 17 7 17 7C17 7 25.7563 7 27.9414 7.59737ZM21.4763 17.0001L14.1997 21.2851V12.715L21.4763 17.0001Z" fill="currentColor"/></svg>